<?xml version="1.0" encoding="iso-8859-1"?>
<!-- Uploaded to: SVG Repo, www.svgrepo.com, Generator: SVG Repo Mixer Tools -->
<!DOCTYPE svg PUBLIC "-//W3C//DTD SVG 1.1//EN" "http://www.w3.org/Graphics/SVG/1.1/DTD/svg11.dtd">
<svg fill="#000000" version="1.1" id="Capa_1" xmlns="http://www.w3.org/2000/svg" xmlns:xlink="http://www.w3.org/1999/xlink" 
	 width="800px" height="800px" viewBox="0 0 553.968 553.968"
	 xml:space="preserve">
<g>
	<path d="M385.839,542.15c0-0.546-0.074-1.097-0.304-1.605l-40.916-93.854l-31.325-155.068c-0.07-0.327-0.243-0.598-0.383-0.892
		v-46.015h41.164v7.425h-6.311c-2.67,0-4.835,2.17-4.835,4.837s2.165,4.833,4.835,4.833h6.311v4.429h-6.311
		c-2.67,0-4.835,2.166-4.835,4.833c0,2.667,2.165,4.831,4.835,4.831h6.311v13.296c0,1.783,1.437,3.221,3.22,3.221h16.11
		c1.783,0,3.23-1.438,3.23-3.221v-13.296h7.383c2.67,0,4.835-2.164,4.835-4.831c0-2.667-2.165-4.833-4.835-4.833h-7.383v-4.429
		h7.383c2.67,0,4.835-2.17,4.835-4.833s-2.165-4.837-4.835-4.837h-7.383v-7.425h14.767c1.843,0,3.448-1.253,3.901-3.045
		c0.457-1.787-0.364-3.654-1.993-4.529l-80.399-43.409v-56.67h41.164v7.425h-6.311c-2.67,0-4.835,2.17-4.835,4.833
		c0,2.665,2.165,4.835,4.835,4.835h6.311v4.432h-6.311c-2.67,0-4.835,2.17-4.835,4.835c0,2.667,2.165,4.837,4.835,4.837h6.311
		v13.292c0,1.776,1.437,3.221,3.22,3.221h16.11c1.783,0,3.23-1.444,3.23-3.221v-13.292h7.383c2.67,0,4.835-2.17,4.835-4.837
		c0-2.665-2.165-4.835-4.835-4.835h-7.383v-4.432h7.383c2.67,0,4.835-2.17,4.835-4.835c0-2.663-2.165-4.833-4.835-4.833h-7.383
		v-7.425h14.767c1.843,0,3.448-1.253,3.901-3.041c0.457-1.788-0.364-3.657-1.993-4.529l-80.399-43.409V56.385
		c0-0.653-0.196-1.251-0.472-1.802c-0.153-0.611-0.401-1.185-0.803-1.643l-31.27-51.023c-0.761-1.237-2.111-1.958-3.575-1.916
		c-1.447,0.054-2.763,0.875-3.43,2.166l-26.859,51.558c-0.172,0.329-0.287,0.681-0.359,1.036c-0.224,0.497-0.361,1.045-0.361,1.628
		v61.823l-81.858,44.197c-1.624,0.875-2.441,2.744-1.993,4.532c0.45,1.788,2.061,3.038,3.906,3.038h14.767v7.428h-7.383
		c-2.667,0-4.837,2.17-4.837,4.835c0,2.667,2.17,4.837,4.837,4.837h7.383v4.432h-7.383c-2.667,0-4.837,2.168-4.837,4.835
		c0,2.663,2.17,4.833,4.837,4.833h7.383v13.289c0,1.783,1.442,3.225,3.22,3.225h16.111c1.783,0,3.22-1.442,3.22-3.225v-13.289h6.31
		c2.672,0,4.835-2.17,4.835-4.833c0-2.667-2.163-4.835-4.835-4.835h-6.31v-4.432h6.31c2.672,0,4.835-2.17,4.835-4.837
		c0-2.665-2.163-4.835-4.835-4.835h-6.31v-7.428h42.454c0.056,0,0.11-0.028,0.168-0.033v121.661l-36.144,155.031l-40.935,93.906
		c-0.224,0.514-0.311,1.06-0.311,1.605h-11.301v11.817h60.418V542.15H203.09l63.237-90.224H287.9l62.469,90.224h-13.908v11.817
		h60.42V542.15H385.839z M384.019,269.46c0.887,0,1.605,0.724,1.605,1.613s-0.719,1.61-1.605,1.61h-36.254
		c-0.887,0-1.614-0.721-1.614-1.61s0.728-1.613,1.614-1.613H384.019z M384.019,255.363c0.887,0,1.605,0.721,1.605,1.61
		c0,0.889-0.719,1.61-1.605,1.61h-36.254c-0.887,0-1.614-0.726-1.614-1.61c0-0.889,0.728-1.61,1.614-1.61H384.019z M384.019,161.807
		c0.887,0,1.605,0.721,1.605,1.61c0,0.889-0.719,1.612-1.605,1.612h-36.254c-0.887,0-1.614-0.723-1.614-1.612
		c0-0.889,0.728-1.61,1.614-1.61H384.019z M384.019,147.715c0.887,0,1.605,0.716,1.605,1.605c0,0.894-0.719,1.61-1.605,1.61h-36.254
		c-0.887,0-1.614-0.721-1.614-1.61c0-0.889,0.728-1.605,1.614-1.605H384.019z M209.475,194.722c0.889,0,1.615,0.721,1.615,1.615
		c0,0.889-0.726,1.605-1.615,1.605h-36.249c-0.889,0-1.61-0.721-1.61-1.605c0-0.894,0.721-1.615,1.61-1.615H209.475z
		 M209.475,180.622c0.889,0,1.615,0.721,1.615,1.61s-0.726,1.61-1.615,1.61h-36.249c-0.889,0-1.61-0.721-1.61-1.61
		s0.721-1.61,1.61-1.61H209.475z M231.515,443.866l45.178-20.367l43.149,20.367H231.515z M228.596,400.804l40.436,19.088
		l-50.157,22.607L228.596,400.804z M304.86,281.363l-44.899-29.699l44.899-23.415V281.363z M253.84,202.826
		c0.18,0.119,0.357,0.245,0.567,0.333l47.209,19.513l-47.776,24.92V202.826z M262.688,199.61l42.172-26.107v43.541L262.688,199.61z
		 M304.86,164.561l-47.161-20.932l47.161-23.051V164.561z M304.86,109.788l-47.613-23.515l47.613-22.269V109.788z M297.318,60.415
		L253.84,80.749V60.415H297.318z M253.84,91.775l47.39,23.403l-47.39,23.16V91.775z M299.503,169.234l-45.562,28.21
		c-0.04,0.023-0.068,0.058-0.101,0.086v-48.575L299.503,169.234z M253.84,255.345l49.961,33.052H253.84V255.345z M252.925,296.447
		h53.121l3.533,17.507h-60.735L252.925,296.447z M286.888,373.855l32.1-13.343l5.975,29.575L286.888,373.855z M322.203,395.912
		l-45.448,20.493l-43.193-20.386l45.009-18.71L322.203,395.912z M278.604,370.313l-34.791-14.837l35.106-17.479l35.412,17.455
		L278.604,370.313z M286.169,334.396l25.02-12.471l5.573,27.55L286.169,334.396z M278.899,330.812l-21.118-10.413h42.024
		L278.899,330.812z M246.914,322.224l24.74,12.2l-31.202,15.536L246.914,322.224z M238.096,360.051l32.188,13.726L231.1,390.064
		L238.096,360.051z M334.939,443.866l-50.525-23.844l42.708-19.257l8.714,43.101H334.939z M375.459,236.658h-62.538v-33.769
		L375.459,236.658z M375.459,129.009h-62.538V95.24L375.459,129.009z M277.212,12.192l24.125,39.357h-44.622L277.212,12.192z
		 M245.619,161.917H181.78l64.006-34.553v34.588C245.724,161.952,245.677,161.917,245.619,161.917z M196.073,538.128h-17.534
		l37.574-86.201h40.373L196.073,538.128z M338.118,451.927l37.574,86.201H357.37l-59.679-86.201H338.118z"/>
</g>
</svg>